<svg width="471" height="446" viewBox="0 0 471 446" fill="none" xmlns="http://www.w3.org/2000/svg">
<path d="M221.23 51.9279C223.539 53.1356 225.556 54.4208 227.634 55.9576C228.405 56.5224 229.177 57.0872 229.971 57.6691C230.79 58.2755 231.609 58.8818 232.453 59.5066C238.613 64.0134 244.801 68.4565 251.139 72.7363C258.024 77.3975 264.763 82.2238 271.481 87.0992C277.473 91.4417 283.526 95.6958 289.614 99.9161C295.182 103.786 300.679 107.74 306.161 111.718C311.376 115.499 316.599 119.248 321.973 122.824C328.203 126.971 334.233 131.355 340.278 135.74C346.438 140.202 352.654 144.584 358.909 148.926C364.417 152.752 369.889 156.621 375.342 160.517C377.757 162.24 380.171 163.919 382.688 165.508C382.951 167.879 383.036 170.051 383.001 172.423C383.001 173.136 383.002 173.85 383.002 174.586C383 176.952 382.979 179.318 382.957 181.684C382.952 183.322 382.948 184.96 382.945 186.598C382.935 190.915 382.908 195.231 382.877 199.547C382.849 203.95 382.836 208.352 382.822 212.754C382.793 221.396 382.744 230.038 382.688 238.68C373.58 238.68 364.473 238.68 355.09 238.68C355.09 219.42 355.09 200.16 355.09 180.316C265.535 180.316 175.981 180.316 83.7129 180.316C83.7129 241.546 83.7129 302.775 83.7129 365.859C91.6058 365.859 99.4987 365.859 107.631 365.859C107.616 362.651 107.602 359.443 107.587 356.137C107.541 345.505 107.511 334.873 107.488 324.241C107.474 317.798 107.454 311.356 107.423 304.913C107.395 299.292 107.377 293.672 107.371 288.051C107.368 285.08 107.359 282.108 107.339 279.137C107.22 259.45 107.542 241.65 122.925 226.641C133.427 217.513 146.824 211.953 161.216 212.336C176.289 213.593 189.518 219.16 199.623 229.969C207.972 240.461 211.25 251.198 211.08 264.298C211.08 265.404 211.081 266.51 211.081 267.65C211.083 270.644 211.061 273.638 211.035 276.632C211.012 279.776 211.01 282.919 211.006 286.063C210.994 291.998 210.964 297.934 210.927 303.869C210.886 310.633 210.866 317.398 210.847 324.162C210.809 338.062 210.742 351.96 210.662 365.859C226.144 365.859 241.627 365.859 257.578 365.859C259.096 370.746 260.614 375.633 262.178 380.668C263.442 383.506 264.667 386.173 266.145 388.889C269.537 395.307 269.537 395.307 269.537 397.219C192.126 397.219 114.714 397.219 34.957 397.219C34.957 387.158 34.957 377.096 34.957 366.73C41.9392 366.73 48.9214 366.73 56.1152 366.73C56.0764 364.237 56.0376 361.743 55.9976 359.173C55.6493 336.266 55.3886 313.359 55.2227 290.45C55.2008 287.443 55.1782 284.436 55.1551 281.429C55.1505 280.83 55.1459 280.232 55.1412 279.615C55.0653 269.942 54.9276 260.271 54.7667 250.599C54.6028 240.663 54.5074 230.728 54.4707 220.791C54.448 215.213 54.3948 209.639 54.2672 204.063C54.148 198.806 54.1121 193.555 54.1383 188.298C54.1335 186.375 54.099 184.453 54.0317 182.531C53.5628 168.454 53.5628 168.454 57.785 163.58C61.8894 159.986 66.4525 157.258 71.283 154.627C75.167 152.417 78.7261 149.804 82.333 147.215C83.7845 146.199 85.2373 145.185 86.6919 144.173C87.4124 143.67 88.1329 143.167 88.8753 142.649C91.0957 141.101 93.3172 139.554 95.5389 138.007C102.351 133.263 109.153 128.508 115.91 123.695C123.407 118.355 130.96 113.088 138.519 107.826C142.177 105.278 145.832 102.727 149.487 100.176C150.944 99.1595 152.4 98.1432 153.857 97.1269C154.578 96.6239 155.299 96.1208 156.042 95.6025C180.075 78.834 180.075 78.834 182.262 77.3081C183.711 76.2969 185.16 75.2856 186.609 74.2741C190.362 71.6543 194.118 69.0372 197.877 66.4243C198.65 65.8859 199.424 65.3474 200.221 64.7927C201.683 63.7755 203.146 62.7592 204.609 61.7439C205.281 61.2762 205.953 60.8085 206.645 60.3266C207.632 59.6447 207.632 59.6447 208.64 58.949C210.077 57.9135 211.478 56.8311 212.85 55.7189C213.567 55.1442 214.285 54.5694 215.025 53.9772C215.666 53.4426 216.307 52.908 216.968 52.3573C218.941 51.3945 218.941 51.3945 221.23 51.9279ZM183.064 97.5625C183.064 107.049 183.064 116.535 183.064 126.309C193.082 126.309 203.1 126.309 213.422 126.309C213.422 116.822 213.422 107.336 213.422 97.5625C203.404 97.5625 193.386 97.5625 183.064 97.5625ZM224.461 97.5625C224.461 107.049 224.461 116.535 224.461 126.309C234.782 126.309 245.104 126.309 255.738 126.309C255.738 116.822 255.738 107.336 255.738 97.5625C245.417 97.5625 235.095 97.5625 224.461 97.5625ZM183.064 136.762C183.064 146.535 183.064 156.309 183.064 166.379C193.082 166.379 203.1 166.379 213.422 166.379C213.422 156.605 213.422 146.832 213.422 136.762C203.404 136.762 193.386 136.762 183.064 136.762ZM224.461 137.633C224.461 147.119 224.461 156.605 224.461 166.379C234.782 166.379 245.104 166.379 255.738 166.379C255.738 156.893 255.738 147.406 255.738 137.633C245.417 137.633 235.095 137.633 224.461 137.633ZM122.35 262.199C122.35 273.41 122.35 284.621 122.35 296.172C132.671 296.172 142.993 296.172 153.627 296.172C153.627 284.961 153.627 273.75 153.627 262.199C143.305 262.199 132.984 262.199 122.35 262.199ZM165.586 262.199C165.586 273.41 165.586 284.621 165.586 296.172C175.907 296.172 186.229 296.172 196.863 296.172C196.863 284.961 196.863 273.75 196.863 262.199C186.542 262.199 176.22 262.199 165.586 262.199ZM122.35 316.207C122.35 327.131 122.35 338.054 122.35 349.309C132.671 349.309 142.993 349.309 153.627 349.309C153.627 338.385 153.627 327.462 153.627 316.207C143.305 316.207 132.984 316.207 122.35 316.207ZM165.586 316.207C165.586 327.131 165.586 338.054 165.586 349.309C175.907 349.309 186.229 349.309 196.863 349.309C196.863 338.385 196.863 327.462 196.863 316.207C186.542 316.207 176.22 316.207 165.586 316.207Z" fill="url(#paint0_linear_166_21)"/>
<path d="M436.043 274.395C454.24 290.937 467.208 313.71 468.24 337.984C468.288 338.905 468.335 339.826 468.384 340.775C469.018 364.306 461.165 386.924 445.242 405.059C444.59 405.809 443.938 406.559 443.266 407.332C427.483 424.705 404.846 436.037 380.848 439.031C366.272 439.958 351.581 439.893 337.611 435.547C336.728 435.274 336.728 435.274 335.827 434.995C309.295 426.465 289.618 409.254 276.666 385.949C265.182 363.294 263.78 337.336 272.297 313.594C272.617 312.666 272.937 311.739 273.267 310.783C282.268 286.623 302.309 268.244 326.385 257.272C334.934 253.876 344.066 251.242 353.25 250.004C354.041 249.897 354.832 249.791 355.647 249.681C384.875 246.589 414.502 255.41 436.043 274.395ZM331.172 292.688C319.579 306.241 317.359 318.363 318.293 335.371C319.824 346.375 326.047 355.417 332.322 364.553C332.957 365.484 333.592 366.416 334.246 367.376C335.935 369.85 337.629 372.321 339.326 374.791C340.378 376.323 341.429 377.855 342.479 379.388C344.552 382.412 346.629 385.433 348.708 388.453C349.342 389.375 349.976 390.297 350.629 391.247C352.411 393.826 354.207 396.395 356.01 398.961C356.589 399.796 357.169 400.63 357.766 401.49C358.603 402.665 358.603 402.665 359.456 403.864C359.945 404.558 360.434 405.251 360.938 405.966C362.568 407.806 363.769 408.577 366.129 409.414C368.831 409.753 368.831 409.753 371.648 408.543C376.549 404.119 379.851 398.153 383.377 392.728C386.844 387.394 390.446 382.15 394.071 376.911C395.84 374.346 397.606 371.78 399.373 369.214C400.487 367.599 401.604 365.985 402.723 364.373C410.722 353.157 410.722 353.157 415.805 340.598C416.061 339.665 416.061 339.665 416.322 338.713C418.838 323.272 416.177 309.027 406.605 296.172C399.143 287.276 387.334 280.259 375.328 278.75C357.993 277.474 344.276 281.582 331.172 292.688Z" fill="url(#paint1_linear_166_21)"/>
<path d="M219.786 15.0119C221.932 15.7603 223.442 16.7017 225.269 18.0038C226.299 18.7306 226.299 18.7306 227.35 19.472C228.453 20.2628 228.453 20.2628 229.578 21.0696C231.16 22.1892 232.743 23.3087 234.325 24.4281C235.133 25.0023 235.94 25.5765 236.773 26.1681C240.471 28.791 244.196 31.3811 247.919 33.9727C249.377 34.9899 250.835 36.0074 252.292 37.0249C255.192 39.0482 258.093 41.0692 260.995 43.0885C269.248 48.8329 277.464 54.6195 285.651 60.447C293.014 65.6827 300.424 70.855 307.844 76.017C311.483 78.5498 315.118 81.0876 318.753 83.625C323.153 86.6963 327.554 89.7666 331.959 92.8328C339.373 97.9964 346.768 103.183 354.123 108.421C361.025 113.332 367.983 118.171 374.939 123.014C379.326 126.069 383.709 129.13 388.093 132.19C391.722 134.722 395.351 137.253 398.984 139.78C407.49 145.702 415.964 151.661 424.386 157.692C427.476 159.897 430.543 162.068 433.811 164.031C434.548 164.518 435.284 165.006 436.043 165.508C436.043 166.083 436.043 166.658 436.043 167.25C431.563 167.468 427.086 167.625 422.601 167.729C421.082 167.772 419.564 167.831 418.047 167.907C406.651 168.465 400.041 166.797 391.411 159.655C389.484 158.079 387.437 156.676 385.379 155.259C383.963 154.248 382.549 153.237 381.135 152.224C375.063 147.893 368.975 143.586 362.852 139.321C362.137 138.822 361.422 138.324 360.685 137.811C358.514 136.299 356.342 134.788 354.17 133.277C345.265 127.08 336.371 120.869 327.539 114.579C319.178 108.63 310.74 102.779 302.312 96.9156C293.34 90.6731 284.401 84.3918 275.501 78.0569C268.144 72.8251 260.739 67.6567 253.325 62.4985C250.346 60.4249 247.371 58.3472 244.395 56.2696C236.227 50.5667 228.048 44.8775 219.861 39.1992C214.194 42.7101 208.682 46.3737 203.245 50.1968C202.487 50.7279 201.729 51.2591 200.947 51.8063C195.599 55.5569 190.272 59.3348 184.954 63.1229C178.051 68.0342 171.092 72.8741 164.136 77.7171C160.477 80.2646 156.822 82.816 153.167 85.3672C148.767 88.4384 144.365 91.5088 139.961 94.575C133.149 99.319 126.347 104.074 119.59 108.887C112.093 114.227 104.54 119.494 96.9812 124.756C93.3231 127.304 89.668 129.855 86.0127 132.406C81.6123 135.478 77.2111 138.548 72.8068 141.614C65.2496 146.877 57.7032 152.152 50.2285 157.52C49.1174 158.315 47.9964 159.097 46.8666 159.867C45.0117 161.154 45.0117 161.154 43.2067 162.797C35.7605 168.804 27.9889 167.95 18.7434 167.631C17.1899 167.601 15.6363 167.573 14.0827 167.548C10.3068 167.481 6.534 167.376 2.75977 167.25C2.75977 166.675 2.75977 166.1 2.75977 165.508C4.04622 164.436 4.04622 164.436 5.8645 163.228C6.53561 162.777 7.20672 162.325 7.89817 161.86C8.63109 161.375 9.36401 160.89 10.1191 160.39C11.6544 159.358 13.1887 158.325 14.7223 157.29C15.498 156.768 16.2737 156.246 17.0729 155.708C20.2925 153.522 23.4598 151.274 26.6202 149.012C34.1327 143.648 41.7061 138.365 49.2863 133.088C52.9445 130.54 56.5995 127.989 60.2549 125.438C61.7114 124.421 63.168 123.405 64.6245 122.389C65.3455 121.886 66.0665 121.383 66.8093 120.864C73.3638 116.291 73.3638 116.291 75.5493 114.766C77.0036 113.751 78.4579 112.737 79.9121 111.722C83.5865 109.157 87.2618 106.595 90.9393 104.034C97.7511 99.2905 104.553 94.5359 111.311 89.7227C118.808 84.3826 126.361 79.1153 133.919 73.8533C137.577 71.3058 141.232 68.7543 144.888 66.2032C146.344 65.1869 147.801 64.1706 149.257 63.1543C149.978 62.6513 150.699 62.1482 151.442 61.6299C175.475 44.8614 175.475 44.8614 177.661 43.3361C179.113 42.3228 180.565 41.3094 182.017 40.2958C185.725 37.708 189.434 35.1232 193.148 32.5435C193.898 32.0215 194.649 31.4994 195.422 30.9615C196.902 29.932 198.384 28.9036 199.866 27.8765C203.187 25.5658 206.475 23.232 209.688 20.7872C210.237 20.3726 210.785 19.9579 211.351 19.5307C212.796 18.4303 214.229 17.3159 215.661 16.2003C218.021 14.8086 218.021 14.8086 219.786 15.0119Z" fill="url(#paint2_linear_166_21)"/>
<path d="M293.624 6.63071C294.742 6.62385 294.742 6.62385 295.883 6.61684C298.34 6.60536 300.797 6.61294 303.254 6.62178C304.967 6.62002 306.68 6.61748 308.392 6.61421C311.98 6.61036 315.567 6.61594 319.154 6.62816C323.746 6.64304 328.337 6.63448 332.929 6.61883C336.465 6.60937 340.001 6.6124 343.538 6.61916C345.23 6.6209 346.923 6.61878 348.615 6.61268C350.985 6.60602 353.353 6.61619 355.722 6.63071C356.418 6.62542 357.113 6.62013 357.83 6.61468C362.988 6.67307 366.78 7.74054 370.603 11.0793C371.043 11.5914 371.483 12.1034 371.936 12.631C372.614 13.399 372.614 13.399 373.305 14.1826C375.139 16.672 375.441 18.8448 375.418 21.7877C375.416 22.3824 375.413 22.9772 375.411 23.59C375.403 24.3394 375.394 25.0887 375.386 25.8607C375.367 28.2502 375.348 30.6397 375.328 33.1017C368.65 33.1017 361.971 33.1017 355.09 33.1017C355.09 54.0863 355.09 75.071 355.09 96.6915C352.38 95.4083 350.295 94.2739 347.907 92.6015C347.229 92.1287 346.552 91.656 345.855 91.1689C345.127 90.6558 344.398 90.1426 343.648 89.6139C342.881 89.076 342.114 88.5381 341.323 87.984C334.792 83.3914 328.323 78.7223 321.864 74.0388C315.478 69.4161 309.025 64.885 302.529 60.4016C301.504 59.6925 301.504 59.6925 300.459 58.9691C299.559 58.3494 299.559 58.3494 298.642 57.7173C297.135 56.6212 297.135 56.6212 295.295 54.879C295.086 52.6821 295.086 52.6821 295.115 49.9451C295.121 48.9682 295.127 47.9913 295.133 46.9847C295.149 45.9607 295.164 44.9366 295.18 43.8815C295.188 42.8506 295.197 41.8198 295.205 40.7578C295.227 38.2057 295.26 35.6536 295.295 33.1017C288.313 33.1017 281.331 33.1017 274.137 33.1017C273.698 17.4448 273.698 17.4448 279.081 11.5421C283.891 7.63834 287.317 6.58287 293.624 6.63071Z" fill="url(#paint3_linear_166_21)"/>
<path d="M382.688 302.269C389.707 306.892 394.199 312.763 396.486 320.562C397.479 330.399 396.475 338.334 389.817 346.096C383.57 352.339 376.657 355.318 367.624 355.678C358.442 355.424 351.724 352.061 345.226 346.117C339.837 340.626 337.611 334.119 337.611 326.66C338.496 317.501 341.456 311.015 348.507 304.675C358.17 297.199 371.907 296.344 382.688 302.269Z" fill="url(#paint4_linear_166_21)"/>
<defs>
<linearGradient id="paint0_linear_166_21" x1="208.983" y1="51.5698" x2="208.983" y2="397.219" gradientUnits="userSpaceOnUse">
<stop stop-color="#018ADB"/>
<stop offset="1" stop-color="#01B836"/>
</linearGradient>
<linearGradient id="paint1_linear_166_21" x1="367.622" y1="249.075" x2="367.622" y2="439.509" gradientUnits="userSpaceOnUse">
<stop stop-color="#018ADB"/>
<stop offset="1" stop-color="#01B836"/>
</linearGradient>
<linearGradient id="paint2_linear_166_21" x1="219.401" y1="14.915" x2="219.401" y2="168.006" gradientUnits="userSpaceOnUse">
<stop stop-color="#018ADB"/>
<stop offset="1" stop-color="#01B836"/>
</linearGradient>
<linearGradient id="paint3_linear_166_21" x1="324.691" y1="6.6106" x2="324.691" y2="96.6915" gradientUnits="userSpaceOnUse">
<stop stop-color="#018ADB"/>
<stop offset="1" stop-color="#01B836"/>
</linearGradient>
<linearGradient id="paint4_linear_166_21" x1="367.213" y1="298.372" x2="367.213" y2="355.678" gradientUnits="userSpaceOnUse">
<stop stop-color="#018ADB"/>
<stop offset="1" stop-color="#01B836"/>
</linearGradient>
</defs>
</svg>
